<svg xmlns="http://www.w3.org/2000/svg" viewBox="0 0 1200 800" role="img" aria-labelledby="title desc">
  <title id="title">Demo ergonomic office chair</title>
  <desc id="desc">A clean product image for a modular office chair digital product passport demo.</desc>
  <defs>
    <linearGradient id="bg" x1="0" x2="1" y1="0" y2="1">
      <stop offset="0" stop-color="#f8fafc"/>
      <stop offset="1" stop-color="#dcfce7"/>
    </linearGradient>
    <linearGradient id="mesh" x1="0" x2="1" y1="0" y2="1">
      <stop offset="0" stop-color="#0f172a"/>
      <stop offset="1" stop-color="#1f2937"/>
    </linearGradient>
    <linearGradient id="green" x1="0" x2="1" y1="0" y2="1">
      <stop offset="0" stop-color="#22c55e"/>
      <stop offset="1" stop-color="#15803d"/>
    </linearGradient>
    <filter id="shadow" x="-20%" y="-20%" width="140%" height="140%">
      <feDropShadow dx="0" dy="18" stdDeviation="18" flood-color="#0f172a" flood-opacity=".18"/>
    </filter>
    <pattern id="dots" width="22" height="22" patternUnits="userSpaceOnUse">
      <circle cx="4" cy="4" r="1.6" fill="#94a3b8" opacity=".45"/>
    </pattern>
  </defs>
  <rect width="1200" height="800" fill="url(#bg)"/>
  <path d="M0 605 C220 540 355 610 535 560 C760 498 920 535 1200 460 L1200 800 L0 800 Z" fill="#ecfdf5"/>
  <rect x="80" y="80" width="1040" height="640" rx="32" fill="#fff" opacity=".72"/>
  <g filter="url(#shadow)">
    <path d="M472 154 C457 154 445 164 442 179 L405 371 C401 392 417 412 438 412 L655 412 C673 412 688 398 690 380 L708 187 C710 169 696 154 678 154 Z" fill="url(#mesh)"/>
    <path d="M496 188 L653 188 C665 188 674 199 672 211 L654 354 C652 365 643 373 632 373 L456 373 C443 373 433 361 436 348 L466 209 C469 197 479 188 496 188 Z" fill="url(#dots)" opacity=".85"/>
    <rect x="438" y="400" width="254" height="90" rx="28" fill="#111827"/>
    <path d="M481 412 H657 C672 412 684 424 684 439 V449 C684 462 674 473 661 474 L470 486 C450 487 433 471 433 451 V449 C433 429 450 412 481 412 Z" fill="#1f2937"/>
    <rect x="372" y="382" width="48" height="24" rx="12" fill="url(#green)"/>
    <rect x="684" y="382" width="86" height="24" rx="12" fill="url(#green)"/>
    <path d="M388 400 L340 530" stroke="#334155" stroke-width="22" stroke-linecap="round"/>
    <path d="M735 400 L802 526" stroke="#334155" stroke-width="22" stroke-linecap="round"/>
    <path d="M565 486 V585" stroke="#334155" stroke-width="32" stroke-linecap="round"/>
    <circle cx="565" cy="603" r="38" fill="#334155"/>
    <path d="M565 606 L430 676 M565 606 L500 704 M565 606 L650 704 M565 606 L715 676" stroke="#334155" stroke-width="18" stroke-linecap="round"/>
    <circle cx="430" cy="684" r="18" fill="#0f172a"/>
    <circle cx="500" cy="712" r="18" fill="#0f172a"/>
    <circle cx="650" cy="712" r="18" fill="#0f172a"/>
    <circle cx="715" cy="684" r="18" fill="#0f172a"/>
  </g>
  <g>
    <rect x="792" y="168" width="220" height="68" rx="18" fill="#ecfdf5" stroke="#86efac"/>
    <text x="822" y="197" fill="#166534" font-family="Arial, sans-serif" font-size="18" font-weight="700">DPP ID</text>
    <text x="822" y="222" fill="#0f172a" font-family="Arial, sans-serif" font-size="20" font-weight="800">DPP-FURN-DEMO-001</text>
    <rect x="792" y="256" width="220" height="68" rx="18" fill="#f8fafc" stroke="#cbd5e1"/>
    <text x="822" y="285" fill="#64748b" font-family="Arial, sans-serif" font-size="18" font-weight="700">Materials</text>
    <text x="822" y="310" fill="#0f172a" font-family="Arial, sans-serif" font-size="20" font-weight="800">steel / mesh / recycled plastic</text>
    <rect x="792" y="344" width="220" height="68" rx="18" fill="#f8fafc" stroke="#cbd5e1"/>
    <text x="822" y="373" fill="#64748b" font-family="Arial, sans-serif" font-size="18" font-weight="700">Circularity</text>
    <text x="822" y="398" fill="#0f172a" font-family="Arial, sans-serif" font-size="20" font-weight="800">repairable / disassemblable</text>
  </g>
</svg>
